<?xml version="1.0" encoding="UTF-8"?>
<svg id="Layer_1" xmlns="http://www.w3.org/2000/svg" version="1.1" viewBox="0 0 226 51">
  <!-- Generator: Adobe Illustrator 30.2.1, SVG Export Plug-In . SVG Version: 2.1.1 Build 1)  -->
  <defs>
    <style>
      .st0 {
        fill: #444731;
      }
    </style>
  </defs>
  <path class="st0" d="M128.94,0C115.12,0,103.87,11.37,103.87,25.34s11.24,25.34,25.06,25.34,25.06-11.37,25.06-25.34S142.76,0,128.94,0ZM128.94,43c-9.63,0-17.46-7.92-17.46-17.66s7.83-17.66,17.46-17.66,17.46,7.92,17.46,17.66-7.83,17.66-17.46,17.66Z"/>
  <path class="st0" d="M100.04,0h-7.6v50.69h7.6V0Z"/>
  <path class="st0" d="M50.18,7.69V0h-19.55v50.69h15.2v-7.69s-7.59,0-7.59,0v-13.81h7.6v-7.69h-7.6V7.69h11.95Z"/>
  <path class="st0" d="M157.98,50.69V0h5.9l20.76,33.48V0h7.6v50.69h-5.9l-20.76-33.48v33.48h-7.6Z"/>
  <path class="st0" d="M49.89,43h3.74c3.07,0,5.94-1.67,7.16-4.51,1.14-2.66,1.04-5.44-.56-7.93-.94-1.46-2.42-2.43-3.66-3.61-1.7-1.61-2.96-3.66-3.76-5.86-.62-1.71-.91-3.51-.96-5.33C51.62,7.07,58.84,0,67.43,0v7.69c-4.4,0-8.22,3.62-7.97,8.06.24,4.44,2.09,5.18,5.04,7.98,2.96,2.8,4.66,7.03,4.72,11.2.04,2.43-.53,4.77-1.59,6.94-2.64,5.44-8,8.81-13.99,8.81h-3.74v-7.69h0Z"/>
  <path class="st0" d="M221.19,7.69h-7.41c-4.4,0-7.97,3.62-7.97,8.06,0,1.58.45,3.11,1.3,4.42.62.81,1.32,1.5,2.08,2.06,4,2.98,6.37,7.72,6.37,12.71,0,2.43-.53,4.77-1.59,6.94-2.64,5.44-8,8.81-13.99,8.81h-3.5v-7.69h3.5c3.07,0,5.81-1.73,7.16-4.51.54-1.11.81-2.3.81-3.55,0-2.59-1.19-4.96-3.25-6.5-1.37-1-2.63-2.26-3.72-3.71l-.12-.17c-1.74-2.61-2.66-5.65-2.66-8.81C198.2,7.07,205.19,0,213.78,0h7.41v7.69Z"/>
  <path class="st0" d="M0,51h9.01c8.59,0,15.58-7.07,15.58-15.75v-.31c0-4.99-2.37-9.73-6.38-12.71-.76-.56-1.46-1.25-2.08-2.06-.85-1.31-1.3-2.84-1.3-4.42,0-4.45,3.58-8.06,7.97-8.06h3.93V0h-3.93C14.22,0,7.23,7.07,7.23,15.75c0,3.16.92,6.2,2.66,8.81l.12.17c1.09,1.45,2.35,2.7,3.72,3.71,2.07,1.54,3.25,3.91,3.25,6.5v.31c0,4.45-3.58,8.06-7.97,8.06H0v7.69h0Z"/>
  <path class="st0" d="M84.8,7.69h3.59V0h-3.59C76.21,0,68.99,7.07,69.22,15.75c.05,1.82.34,3.62.96,5.33.8,2.2,2.07,4.26,3.76,5.86,1.24,1.18,2.71,2.15,3.66,3.61,1.61,2.49,1.71,5.27.56,7.93-1.22,2.84-4.1,4.51-7.16,4.51v7.69c5.99,0,11.35-3.38,13.99-8.81,1.06-2.17,1.62-4.51,1.59-6.94-.06-4.18-1.67-8.32-4.72-11.2-2.96-2.8-4.8-3.53-5.04-7.98-.24-4.44,3.58-8.06,7.97-8.06h0Z"/>
  <path class="st0" d="M221.42,50.69c2.53,0,4.58-2.07,4.58-4.63s-2.05-4.63-4.58-4.63-4.58,2.07-4.58,4.63,2.05,4.63,4.58,4.63Z"/>
</svg>