<?xml version="1.0" encoding="iso-8859-1"?>
<!-- Generator: Adobe Illustrator 30.3.0, SVG Export Plug-In . SVG Version: 9.03 Build 0)  -->
<svg version="1.1" id="Layer_1" xmlns="http://www.w3.org/2000/svg" xmlns:xlink="http://www.w3.org/1999/xlink" x="0px" y="0px"
	 width="79.321px" height="85.399px" viewBox="0 0 79.321 85.399" enable-background="new 0 0 79.321 85.399" xml:space="preserve">
<path fill="#444731" d="M79.321,13.241H51.853c-7.391,0-13.403,6.036-13.403,13.454c0,2.639,0.756,5.185,2.188,7.373
	c1.04,1.347,2.217,2.502,3.498,3.434c6.727,4.969,10.714,12.883,10.714,21.204c0,4.059-0.898,7.955-2.671,11.578
	c-4.439,9.069-13.447,14.701-23.51,14.701H0V72.157h28.67c5.152,0,9.766-2.887,12.038-7.532c0.906-1.847,1.365-3.84,1.365-5.922
	c0-4.323-1.995-8.276-5.469-10.842c-2.306-1.674-4.424-3.764-6.254-6.182l-0.205-0.288c-2.926-4.349-4.474-9.431-4.474-14.698
	C25.671,12.205,37.417,0.415,51.853,0.415h27.467V13.241z"/>
</svg>
