<?xml version="1.0" encoding="UTF-8"?>
<svg id="Layer_1" xmlns="http://www.w3.org/2000/svg" version="1.1" viewBox="0 0 1432.6 333.1">
  <!-- Generator: Adobe Illustrator 30.4.0, SVG Export Plug-In . SVG Version: 2.1.4 Build 226)  -->
  <defs>
    <style>
      .st0 {
        fill: #444731;
      }
    </style>
  </defs>
  <path class="st0" d="M824.6,8.9c-88.4,0-160.3,72.7-160.3,162.1s71.9,162.1,160.3,162.1,160.3-72.7,160.3-162.1S913,8.9,824.6,8.9ZM824.6,283.9c-61.6,0-111.7-50.7-111.7-112.9s50.1-112.9,111.7-112.9,111.7,50.7,111.7,112.9-50.1,112.9-111.7,112.9Z"/>
  <rect class="st0" x="591.2" y="8.9" width="48.6" height="324.2"/>
  <polygon class="st0" points="244.6 58.1 320.9 58.1 320.9 8.9 195.9 8.9 195.9 333.1 293.1 333.1 293.1 283.9 244.6 283.9 244.6 195.6 293.2 195.6 293.2 146.4 244.6 146.4 244.6 58.1"/>
  <polygon class="st0" points="1180.8 223 1048.1 8.9 1010.3 8.9 1010.3 333.1 1058.9 333.1 1058.9 119 1191.7 333.1 1229.4 333.1 1229.4 8.9 1180.8 8.9 1180.8 223"/>
  <path class="st0" d="M412.5,160.7c-18.9-17.9-30.7-22.6-32.2-51-1.6-28.4,22.8-51.5,51-51.5V8.9c-54.9,0-101.1,45.2-99.6,100.8.3,11.6,2.2,23.2,6.1,34.1,5.1,14.1,13.2,27.2,24,37.5,7.9,7.5,17.4,13.7,23.4,23.1,10.2,15.9,10.9,33.7,3.6,50.7-7.8,18.2-26.2,28.8-45.8,28.8h-23.9v49.1h23.9c38.3,0,72.6-21.6,89.5-56.3,6.8-13.9,10.4-28.8,10.2-44.4-.4-26.7-11.3-53.7-30.2-71.6Z"/>
  <rect class="st0" x="319.1" y="283.9" width="0" height="0"/>
  <path class="st0" d="M46.2,109.6c0,20.2,5.9,39.7,17,56.3l.8,1.1c7,9.3,15,17.3,23.8,23.7,13.2,9.8,20.8,25,20.8,41.6v2c0,28.5-22.9,51.5-51,51.5H0v49.2h57.6c54.9,0,99.6-45.2,99.6-100.7v-2c0-31.9-15.2-62.2-40.8-81.3-4.9-3.6-9.3-8-13.3-13.2-5.4-8.4-8.3-18.2-8.3-28.3,0-28.5,22.9-51.5,51-51.5h25.1V8.9h-25.1c-54.9,0-99.6,45.2-99.6,100.7Z"/>
  <path class="st0" d="M442.7,109.6c.3,11.6,2.2,23.2,6.1,34.1,5.1,14.1,13.2,27.2,24,37.5,7.9,7.5,17.3,13.7,23.4,23.1,10.3,15.9,10.9,33.7,3.6,50.7-7.8,18.2-26.2,28.8-45.8,28.8v49.2c38.3,0,72.6-21.6,89.5-56.3,6.8-13.9,10.4-28.8,10.2-44.4-.4-26.7-10.7-53.2-30.2-71.6-18.9-17.9-30.7-22.6-32.2-51-1.5-28.4,22.9-51.5,51-51.5h23V8.9h-23c-54.9,0-101.1,45.2-99.6,100.7Z"/>
  <path class="st0" d="M1267.3,107.7c0,20.2,5.9,39.7,17,56.3l.8,1.1c7,9.3,15,17.3,23.8,23.7,13.2,9.8,20.8,25,20.8,41.6v2c0,28.5-22.9,51.5-51,51.5h-25.3v49.2h25.3c54.9,0,99.6-45.2,99.6-100.7v-2c0-31.9-15.2-62.2-40.8-81.3-4.9-3.6-9.3-8-13.3-13.2-5.4-8.4-8.3-18.2-8.3-28.3,0-28.5,22.9-51.5,51-51.5h37.1V6.9h-37.1c-54.9,0-99.6,45.2-99.6,100.7Z"/>
</svg>